<?xml version="1.0" encoding="utf-8"?>
<!-- Generator: Adobe Illustrator 27.3.1, SVG Export Plug-In . SVG Version: 6.00 Build 0)  -->
<svg version="1.1" id="Layer_1" xmlns="http://www.w3.org/2000/svg" xmlns:xlink="http://www.w3.org/1999/xlink" x="0px" y="0px"
	 viewBox="0 0 314.87 112.76" style="enable-background:new 0 0 314.87 112.76;" xml:space="preserve">
<style type="text/css">
	.st0{fill:#2E2929;}
	.st1{fill:#FFFFFF;}
</style>
<g>
	<g>
		<path class="st0" d="M313.37,111.26H1.5c0,0,1.36-1.89,3.16-4.48c1.96-2.83,4.44-6.5,6.23-9.46c3.42-5.68,10.32-9.29,12.28-11.1
			c1.27-1.18,3.65-3.15,5.9-4.83c1.2-0.9,2.35-1.71,3.29-2.27c0.95-0.57,2.46-1.89,4.05-3.44c0.01-0.01,0.01-0.01,0.01-0.01
			c2.96-2.89,6.21-6.58,6.65-7.75c0.69-1.81,1.18-3.47,2.74-4.64c0.62-0.47,1.21-1.03,1.88-1.6c1-0.84,2.2-1.69,3.99-2.22
			c2.99-0.88,3.72,0.49,6.07,3.37c2.34,2.89,10.71,4.9,10.71,4.9L84.5,46.2l25.83-14.91c0,0,9.68-16.1,15.45-19.52
			c5.78-3.42,7.93-6.31,10.03-10.22c3.62-0.49,11.25,2.59,15.31,6.11s7.97,8.61,11.25,11.59c3.28,2.99,12.87,7.39,12.87,7.39
			s9.73-7.97,12.03-7.92c2.3,0.04,4.73,0.65,8.31,2.54c3.59,1.89,2.22,1.89,8.16,7.5c2.1,1.98,4.56,3.71,7.02,5.26
			c4.5,2.85,9,5.11,11.24,7.26c6.15,9.19,12.12,13.64,16.32,14.11c1.02,0.11,1.93-0.01,2.72-0.35c4.04-1.76,14.74-8.09,14.74-8.09
			s10.56,12.13,12.2,13.5c1.63,1.37,3.78,0.59,4.04,3.27c0.26,2.67,5.02,10.23,5.02,10.23s1.34,0.57,3.29,1.28
			c2.51,0.92,6.03,2.09,9.04,2.64c0.39,3,2.87,5.28,5.41,9.32c2.54,4.05,5.87,5.16,10.11,11.68c0.05,0.07,0.1,0.15,0.14,0.22
			C309.23,105.52,313.37,111.26,313.37,111.26z"/>
	</g>
	<g>
		<g>
			<path class="st1" d="M208.73,91.7c2.12-3.29,3.36-4.04,4.79-4.89c1.43-0.85,3.2-1.89,4.21-3.65c1.01-1.76,2.58-5.22,2.58-5.22
				l-6.41,4.66l-4.52,5.05L208.73,91.7z"/>
		</g>
		<g>
			<path class="st1" d="M238.32,55.39c-4.2-0.47-10.17-4.92-16.32-14.11c-2.24-2.15-6.74-4.41-11.24-7.26v0.01l4.78,9.14
				c0,0-10.42-10.91-12.42-11.39c-0.79,2.59-0.69,5.91-0.69,5.91s1.76,1.09,2.4,4.41c0.63,3.32,2.3,6.7,2.3,6.7
				s-2.45-2.35-2.99-4.99c-0.53-2.64-4.55-5.58-4.64-7.14c-0.1-1.57,1.22-6.12,0.63-7.83c-0.58-1.71-3.32-7.09-12.67-8.07
				c-2.54,1.22-6.65,3.91-9.44,5.87c-2.78,1.96-4.89,4.74-6.45,6.6c-1.57,1.86-2.06,3.33-3.62,4.21c-1.57,0.88-12.13,5.53-13.4,6.36
				c-1.28,0.83-2.69,4.55-4.16,6.16c-1.47,1.61-3.62,1.47-3.82,2.25c-0.19,0.78-2.88,4.01-3.71,6.85c-0.84,2.84-1.52,5.26-4.31,6.03
				c-2.79,0.77-7.37,7-8.18,8.53c4.76-2.94,8.08-3,9.58-4.96c1.5-1.95,3.13-4.56,3.46-6.65c0.33-2.09,2.67-7.57,7.04-8.94v5.48
				c0,0,3.46-11.8,4.76-13.24c1.31-1.43,13.37-6.06,13.37-6.06s-2.72,5.98-9.26,8.93c9.33-2.08,9.52-4.82,11.02-8.41
				s1.57-3.98,3.4-5.28c1.82-1.31,1.3-3.26,2.47-4.31c1.18-1.04,7.5-5.61,9.85-6.26l-0.45,2.71c0,0,1.89,1.01,2.15,1.86
				c0.26,0.85,0.85,1.95,2.8,3.39c1.9,1.39,3.42,9.67,3.51,10.18l-4.16-7.51l-1.63,2.29l-2.34-6.03c0.13,0.73,2.28,12.49,3.3,14.34
				c-0.24-0.33-2.11-2.96-2.66-3.06c-0.58-0.1-0.71,1.59-1.37,1.66c-0.65,0.06-1.56-1.11-1.82-3.85c-0.25-2.63-2.66-4.77-2.86-4.95
				c0.08,0.23,1.55,4.11,1.42,6.39c-0.13,2.34-0.52,3.19-0.13,4.17c0.39,0.98,1.89,0.52,2.22,1.63c0.32,1.08,5.59,18.73,5.92,19.84
				c-0.42-0.73-5.16-9.08-5.66-9.08c-0.52,0-2.8,3.59-2.8,4.31c0,0.71,1.89,1.23,1.95,2.47c0.07,1.24-0.78,3.85-0.78,5.35
				c0,1.45,2.94,8.48,3.12,8.92c-0.27-0.36-3.81-5.23-4.88-9.31c-1.11-4.24-3-5.28-3.07-7.3c-0.06-2.03-0.26-2.74-1.5-4.77
				c-1.23-2.02-2.14-3.65-2.14-5.34c-0.99,3.26,0.84,6.45,1.04,7.76c0.19,1.3-1.75,2.61-1.04,4.69c0.71,2.09,1.75,0.75,2.47,4.26
				c0.72,3.5-0.59,5.66-0.39,9.37c0.2,3.72,1.04,8.16,4.24,10.18l2.08,5.73c-0.15-0.26-2.58-4.37-3.84-4.69
				c-1.31-0.32-3.97-1.43-4.56-3.59c-0.59-2.15-1.7-5.6-3.46-7.95c1.95,6.78,0.91,10.24,1.69,12.13c0.78,1.89,3.2,1.5,3.2,1.5
				s-0.33,3.59,0.91,5.02c1.24,1.43,1.89,1.3,1.89,1.3s-0.98,2.16,0.52,5.09c1.5,2.94,2.22,6.39,2.22,6.39s0.26-4.43,1.63-5.87
				c1.37-1.43,4.18-3.39,5.15-6.78c0.98-3.39,0.66-4.43-0.52-4.83c-1.17-0.39-2.41-3.84-2.35-6.84c1.96,4.95,3.79,6.06,6.2,6.97
				l-1.17,11.68c0,0,1.89-3.65,3.58-6c1.7-2.35,1.76-3.78,3.46-4.37c1.69-0.59,3.19-1.37,3.19-1.37s0.85,2.61,2.48,2.67
				c0,0,2.79,0.2,2.93-0.03c0.13-0.23,0.75-1.39,0.75-1.39s-1.79-3.21-1.92-7.38c-0.13-4.17,1.83-5.74-2.41-11.02
				c3.33,1.3,5.02,5.87,5.09,8.28c0.06,2.41,1.73,4.43,1.73,4.43l4.24-4.43c0,0-2.84-3.13-4.08-7.04c-1.18-3.73-2.06-6.84-2.14-7.14
				c0.22,0.38,3.76,6.53,5.47,7.98c1.76,1.5,3.23,0.83,4.78,2.93l1.53-1.26c0,0-3.71-10.73-3.51-10.73c0.2,0,6.26,5.34,6.26,5.34
				s1.14-5.94,4.58-7.86c3.45-1.92,12.38-8.99,12.38-8.99L238.32,55.39z M195.26,52.7c-0.32-1.17-2.44-4.53-1.37-6.75
				c-0.29,1.6,2.09,5.51,2.87,6.39c0.78,0.88-1.89,4.3-1.83,5.18c0.07,0.88,3.23,8.15,3.23,8.15s-5.97-5.97-5.8-7.66
				C192.52,56.32,195.58,53.87,195.26,52.7z M194.65,85.24c-0.44,2.35-0.29,6.46-0.29,6.46s-2.79-4.65-1.22-7.97
				c1.57-3.33,2.45-4.21,2.49-5.45c0.05-1.25-2.93-9.02-2.89-13.43c1.42,4.3,7.19,14.28,7.19,14.28S195.09,82.89,194.65,85.24z
				 M198.91,50.41c0-1.32,1.27-5.82,1.03-7.78c0.68,2.54,0.88,6.65,1.08,7.58c0.2,0.93,3.52,5.72,3.62,10.96
				C202.92,56.82,198.91,51.73,198.91,50.41z M213.98,60.39l-1.17,0.78l-4.84-10.03l4.89,6.11h2.84c0,0,2.05,9.15,2.05,9.29
				C217.74,66.7,213.98,60.39,213.98,60.39z M220.04,51.91c-0.24-0.22-0.93,0.51-2.3,0.32c-1.37-0.2-4.99-6.8-5.14-6.85
				c0,0,5.14,4.4,5.53,4.5c0.39,0.1,2.05-0.24,2.49-0.15c0.44,0.1,4.7,7.48,4.7,7.48S220.29,52.13,220.04,51.91z M230.61,58.48
				c-0.78,0.59-3.47-2.01-5.97-6.07C226.15,53.5,231.39,57.9,230.61,58.48z"/>
		</g>
		<g>
			<path class="st1" d="M105.29,83.58c6.26-1.66,14.05-5.12,15.36-6.49c1.3-1.37,3.7-5.74,6.41-7.63
				c2.72-1.89,11.56-5.91,11.56-5.91l0.81-2.96c0,0-8.89,5.02-12.37,6.72c-3.48,1.7-6.74,7.17-8.5,8.74
				C116.8,77.61,105.29,83.58,105.29,83.58z"/>
		</g>
		<g>
			<path class="st1" d="M163.84,20.41c0,0-0.2,3.79,1.86,7.99c-3.82-4.26-5.75-11.56-5.75-11.56L152,8.89c0,0-0.02,8.72,2.35,12.86
				c-4.55-5.04-3.62-8.36-3.72-9.83c-0.1-1.47-4.16-5.43-4.16-5.43s0.98,3.96,1.91,5.33c-2.15-3.13-6.05-9.17-11.2-8.32
				c-0.88,0.15,0,2.1,0.73,2.89c0.73,0.78,1.66,1.81,1.76,3.18c0.1,1.37,1.86,4.16,1.86,4.16s-2.15-1.96-2.93-3.52
				c-0.78-1.57-2.59-3.72-3.28-3.28c-0.68,0.44-5.28,3.72-6.7,4.26c-1.42,0.54-8.8,6.41-8.8,6.41s-6.85,12.42-7.04,14.28
				c-0.2,1.86-5.09,7.39-6.51,9.44c-1.42,2.05-3.13,7.09-4.21,9.78c-1.08,2.69-7.24,12.91-7.24,12.91l4.79-5.18
				c0,0,1.12,1.57,1.61,2.45c0.49,0.88-2.74,7.33-5.33,9.71c-2.59,2.38-15.97,9.81-15.97,9.81c7.07-2.59,16.26-6.02,17.88-8.07
				c1.61-2.05,6.21-10.32,6.21-11.74s-2.41-2.05-2.58-3.82c-0.16-1.76,2.05-2.67,2.25-4.86c0.2-2.18,4.47-12.23,8.77-16.4
				c0.65,3,0.23,9.88,0.23,9.88s3.36-10.63,3.46-17.67c5.62-7.92,7.58-7.68,9.59-10.47c2.01-2.79,4.01-3.13,5.92-4.4
				c1.91-1.27,3.77-2.15,5.18-1.66c1.42,0.49,2.84,2.3,2.69,4.26c-0.15,1.96,2.45,8.66,2.45,8.66s-2.22-2.97-2.97-4.4
				c-0.75-1.43-1.24-0.49-2.02,0.26c-0.78,0.75-2.25,2.18-2.97,2.12c-0.72-0.07-2.28-4.37-2.84-4.3c-0.55,0.07,0.03,4.4,0.78,5.64
				c0.75,1.24,2.12,3.1,1.89,4.37c-0.23,1.27,1.53,6.68,1.53,6.68s-2.77-3.78-3.49-6.03c0,0-1.37,2.05-1.83,2.09
				c-0.46,0.03-3.36-5.48-3.36-5.48s0.1,4.17,0.26,5.45c0.16,1.27,1.4,1.96,1.57,2.35s-0.46,3.13,0.16,4.47
				c0.62,1.34,2.41,5.35,2.41,5.35l0.91-6.88c0,0,6.1-0.2,7.04,0.78c0.95,0.98-0.13,3.23,0.95,5.48c1.08,2.25,3.66,7.73,2.12,8.32
				c-1.63,0.62-1.99-0.78-3.65-4.17c-1.3,1.21-4.43,4.57-4.43,4.57l2.12,6.39c0,0-3.29-2.05-5.74-6.29
				c-2.45-4.24-3.62-5.28-3.62-5.28s1.86,5.15,2.45,7.96c0.59,2.8-1.37,8.12-1.37,8.12l12.33-4.79l4.07-4.11l5.28-6.29l2.5-3.5
				l3.17-1.8l-5.17-10.16l5.93,6.52l-1.11-4.57l4.76,5.54l3.91-2.02l-6.85-10.96c0,0,7.5,7.11,8.61,7.7
				c1.11,0.59,5.51-2.58,5.51-2.58l3.36-4.86L163.84,20.41z M157.76,32.32c0,0-3.68-4.4-5.09-5.02c-1.4-0.62-3.2-0.1-3.62-0.65
				c-0.42-0.55-2.12-3.29-3.75-8.25c0,0,3.78,5.32,4.47,6.29c0.68,0.98,2.15-0.55,3.62,0.98C154.86,27.2,157.76,32.32,157.76,32.32z
				"/>
		</g>
		<g>
			<path class="st1" d="M57.84,85.04c7.63-5.09,12.13-11.84,16.24-17.32c4.11-5.48,11.84-17.12,12.91-18.2
				c1.08-1.08,12.47-8.17,12.47-8.17s-3.52,9.39-3.96,14.14l7.09-12.96l5.58-9.49l-14.71,7.98c0,0-4.03,4.84-5.49,5.47
				c-1.47,0.64-2.4,1.52-3.23,2.89c-0.83,1.37-11.3,12.29-11.3,12.29L57.84,85.04z"/>
		</g>
		<g>
			<path class="st1" d="M29.74,81.58c0,0-7.7,11.68-10.96,12.85c-3.26,1.18-3.98,3.2-13.3,13.5l-0.82-1.15
				c1.96-2.83,4.44-6.5,6.23-9.46c3.42-5.68,10.32-9.29,12.28-11.1c1.27-1.18,3.65-3.15,5.9-4.83L29.74,81.58z"/>
		</g>
		<g>
			<path class="st1" d="M65.8,67.73c0,0-5.57,8.57-8.48,12.22c-2.9,3.66-8.08,6.43-11.51,7.8c-3.42,1.37-9.45,5.08-9.45,5.08
				s2.57-3.35,4.85-5.51c2.29-2.15,4.44-2.25,5.03-2.67c0.58-0.42,0.65-0.85,1.36-2.09c0.71-1.24,0.89-2.18,1.05-3.29
				c0.16-1.11,4.11-4.53,4.92-5.8c0.82-1.28,0.23-2.06-0.52-2.49c-0.75-0.44-2.8-0.81-3.52-1.3c-0.72-0.49,0.06-2.15,0.75-3.13
				c0.68-0.98,1.47-2.97,0.91-3c-2.18-0.13-4.89,4.7-5.15,6.72c-0.26,2.02-3.29,4.04-5.18,5.38c-1.9,1.34-4.41,6.26-5.71,8.05
				c-1.31,1.8-2.12,5.29-3.52,5.94c-1.4,0.65-3.49,3.75-4.21,5.28c-0.72,1.53-1.47,3.56-7.08,4.08c1.88-0.38,5.03-3.05,5.56-4.34
				c0.54-1.29,2.55-5.27,3.84-6.15c1.29-0.88,2.28-3.18,3.7-5.82c1.38-2.56,2.88-6.75,2.97-7.01c0.01-0.01,0.01-0.01,0.01-0.01
				c2.96-2.89,6.21-6.58,6.65-7.75c0.69-1.81,1.18-3.47,2.74-4.64c0.62-0.47,1.21-1.03,1.88-1.6l2.17,0.05c2.05,1.04,3-0.33,4.04,0
				c1.04,0.32,2.25,7.17,6.33,9.58c-2.87-3.58-2.78-7.27-2.78-7.27L65.8,67.73z"/>
		</g>
		<g>
			<path class="st1" d="M40.17,105.46c7.43-1.89,20.15-8.41,21-9.46c0.85-1.04,7.04-10.97,11.48-15.66
				c-8.15,4.64-12.85,12.72-13.5,14.03C58.5,95.67,42.71,103.57,40.17,105.46z"/>
		</g>
		<g>
			<path class="st1" d="M90.89,52.93c0.38,0.55-0.88,2.84-1.35,3.28s-2.62,1.03-3.01,2.25c-0.39,1.22-6.6,8-6.6,8
				s4.87-9.05,5.89-10.52S90.76,52.76,90.89,52.93z"/>
		</g>
		<g>
			<path class="st1" d="M119.61,42.11c-0.46,3.87-0.98,12.48-1.11,14.28c-0.13,1.79-6.46,5.51-7.37,6.88
				c-0.91,1.37-3.78,10.37-3.78,10.37s0.98-9.33,2.61-11.61c1.63-2.28,6.07-4.43,6.72-7.24C117.32,51.98,119.61,42.11,119.61,42.11z
				"/>
		</g>
		<g>
			<path class="st1" d="M162.62,54.62c-6.26,3.42-8.15,4.37-9.13,5.97c-0.98,1.6-0.68,3.16-1.08,4.52c-0.39,1.35-1.7,4.06-1.66,5.04
				c0,0-6.78,4.21-10.04,10.24c3.26-3.26,7.3-6.85,9.39-7.7c2.09-0.85,3.72-3.16,4.21-6.23c0.49-3.07,0.29-4.17,1.01-4.89
				C156.03,60.85,162.62,54.62,162.62,54.62z"/>
		</g>
		<g>
			<path class="st1" d="M305.03,99.09l-0.83,2.65c0,0-5.9-4.63-6.62-5.12c-0.71-0.49-0.81-1.73-3.06-3.26
				c-2.13-1.46-4.46-3.78-4.71-4.02c0.16,0.29,1.55,2.68,3.44,5.13c2.02,2.6,2.54,7.04,2.08,7.1c-0.45,0.07-2.64-0.55-3.62-1.4
				c-0.97-0.85-4.53-7.17-6.09-8.02c-1.57-0.85-2.45-1.7-5.32-5.71c1.7,4.37,4.57,6.62,4.83,7.34c0.26,0.72,0,2.12,0,2.12
				l-1.46-0.51c0.16,0.29,2.76,4.97,4.78,7.62c2.09,2.74,2.12,0.98,3.92,2.51c1.79,1.53,3.62,4.03,3.62,4.03s-3.2-2.5-4.37-3.28
				c-1.18-0.78-2.32-0.62-3.13-1.08c-0.82-0.45-1.24-1.59-3.04-3.32c-1.79-1.73-5.39-4.8-6-6.34c-0.62-1.54-3.65-4.96-5.09-6.11
				s-3.3-3.03-3.3-3.03s0.17,0.75,1.15,1.88c0.97,1.12,0.34,2.57,0.95,4.92c0.57,2.19,2.91,4.4,3.2,4.66
				c-0.31-0.24-2.77-2.26-3.3-2.81c-0.56-0.58-1.17-0.12-2.25-1.71c-1.07-1.59,0.15-3.03-0.8-3.54c-0.96-0.52-1.96-3.18-2.25-4.48
				c-0.3-1.3,1.44-3.28,0.48-4.65c-0.95-1.37-4.3-7.5-4.47-7.58c-0.17-0.07,2.59,8.59,2.59,8.59s-0.76,1.27-1.22,2.54
				c-0.47,1.27-0.49,3.79-0.49,3.79s-1.32-2.59-2.08-3.28c-0.76-0.68-1.96-0.29-2.79-0.61c-0.83-0.32-6.5-5.18-6.5-5.18
				s4.84,6.18,5.84,6.92c1,0.73,1.18-0.34,2.08,0.41c0.91,0.76,2.3,4.6,3.64,6.34c1.35,1.73,0.49,3.08,2.06,5.21
				c1.56,2.13,2.44,2,3.57,3.03c1.12,1.03,0.66,2.35,0.93,4.08c0.26,1.67,3.01,4.41,3.22,4.62c-0.31-0.14-5.15-2.43-5.86-3.05
				c-0.74-0.64-0.15-1.57-1.27-2.54c-1.13-0.98-3.87-2.6-5.31-4.31s-2.13-4.23-2.42-5.5c-0.3-1.27-1.1-1.49-1.74-2.52
				c-0.63-1.03-0.32-1.96-0.89-2.57c-0.58-0.61-2.43-1.54-2.43-1.54s1.73,1.52,1.9,2.3c0.17,0.78-0.09,1.37,0.35,2.1
				c0.44,0.74-0.03,1.28-0.22,2.06c-0.2,0.78,0.36,3.5,0.36,3.5s-3.5,0.48-4.91,1.19c-1.42,0.71-3.33,2.94-3.89,2.89
				c-0.56-0.05-4.38-2.57-4.75-2.47c-0.36,0.1-0.49,0.71,0.44,1.76c0.93,1.05,2.64,3.69,1.69,4.33c-0.95,0.63-3.28,3.79-4.94,3.69
				c-0.83-0.31-0.02-3.96,0.02-4.74c0.03-0.79-0.62-1.31-1.99-3.88c-1.37-2.58-2.06-7.8-2.06-7.8l3.1,3.66l4.27-2.45
				c0,0-2.83-2.64-3.65-3.29c-0.81-0.66-1.92,1.3-3,0.16c-1.05-1.1-3.1-6.13-3.22-6.44c0.24,0.26,4.08,4.46,4.3,4.68
				c0.23,0.23,0.91-0.1,1.79-0.33c0.88-0.23,3.52,2.48,4.76,3.79c1.24,1.3,7.04,4.36,7.04,4.36s-0.71-1.59-2.38-3.42
				c-1.61-1.77-3.89-6.01-4.03-6.28l3.97,2.99l0.91-2.55c-2.02-0.75-4.86-4.14-5.83-4.95c-0.94-0.79-5.05-0.01-5.4,0.05l4.25-4.03
				c0,0-1.4-2.77-2.54-5.35c0.16,0,9.52,9.16,9.52,9.16l-3.32-5.64l3.75-3.42c0,0-2.84-3.78-1.96-4.21c0.85-0.41,8.7,7.12,9.18,7.58
				c-0.29-0.5-5.79-9.65-6.8-12.34c-0.98-2.6-2.39-5.88-2.56-6.28c0.3,0.4,4.25,5.71,7.19,8.43c-3.06-4.82-2.97-8.38-2.8-10.1
				c0.16-1.73,1.24-3.79,0.39-4.05c-0.85-0.26-1.96,1.63-5.19,3.13c-3.23,1.5-5.44,2.02-6.36,3.26c-0.91,1.24-2.9,3.46-4.07,4.73
				c-1.18,1.27-1.01,1.93-1.05,3.13c-0.03,1.17-4.65,4.73-4.94,4.95c0.23-0.25,4.09-4.37,3.67-5.6c-0.42-1.27,0.82-3.13,0.82-3.13
				s-6.17,3.55-7.24,4.47c-1.08,0.91-3.69,4.43-4.24,6.55c-0.55,2.12-0.52,5.32-0.82,7.08c-0.29,1.76-3.16,4.76-5.08,9.98
				c0.29-2.71,1.76-6.72,2.48-8.32c0.71-1.6,0.45-2.35,0.48-3.78c0.04-1.44,0.95-5.12,1.86-6.56c0.92-1.43,1.41-3.42,3.17-4.76
				c1.76-1.33,8.18-5.18,9.65-6.16c1.47-0.98,2.49-1.97,3.42-3.15c0.93-1.17,6.02-3.37,8.22-4.5c2.2-1.12,4.79-3.91,6.11-3.91
				c1.32,0,7.75,8.72,8.47,10.35c0.71,1.63,2.87,5.51,4.04,7.67c1.17,2.15,0.52,3.58,0.52,5.02c0,1.39,3.74,4.49,3.97,4.68
				c-0.15-0.23-2.57-3.91-2.5-5.04c0.06-1.18,0.72-3.39-0.62-5.68c-1.34-2.28-2.02-4.79-2.02-4.79s2.02,1.08,3.06,1.96
				c1.05,0.88,0.65,3.29,3.69,7.92c3.03,4.63,3.85,8.74,5.02,9.88c1.17,1.14,2.09,0.59,4.69,2.87c2.53,2.21,5.98,7.46,6.19,7.78
				c-0.2-0.46-3.49-7.86-4.69-9.44c-1.23-1.63-4.23-3.46-4.5-5.41c-0.06-0.48,0.14-1.24,0.49-2.12c2.51,0.92,6.03,2.09,9.04,2.64
				c0.39,3,2.87,5.28,5.41,9.32c2.54,4.05,5.87,5.16,10.11,11.68C304.94,98.94,304.99,99.02,305.03,99.09z"/>
		</g>
		<g>
			<path class="st1" d="M228.98,84.56c-0.07,3.46,0.2,6.88-1.57,9.07c-1.76,2.18-6.1,3.04-6.64,3.92c-0.54,0.88-0.83,2.71-1.83,2.93
				c0.78-1.47-0.05-2.49,0.78-3.4c0.83-0.9,6.33-2.45,7.31-4.84C228.01,89.84,228.98,84.56,228.98,84.56z"/>
		</g>
	</g>
	<g>
		<path class="st0" d="M313.37,112.76H1.5c-0.56,0-1.08-0.31-1.34-0.82c-0.26-0.5-0.21-1.1,0.12-1.56c0,0,1.36-1.88,3.15-4.46
			c1.82-2.63,4.37-6.39,6.18-9.38c2.67-4.43,7.21-7.6,10.22-9.7c1-0.7,1.87-1.31,2.32-1.72c1.41-1.3,3.88-3.33,6.02-4.93
			c1.4-1.05,2.52-1.82,3.42-2.36c0.76-0.46,2.14-1.63,3.77-3.23c3.43-3.35,6.02-6.51,6.3-7.22l0.21-0.55
			c0.63-1.7,1.29-3.45,3.04-4.76c0.37-0.28,0.74-0.61,1.13-0.95c0.22-0.19,0.45-0.39,0.68-0.59c1.07-0.9,2.44-1.9,4.54-2.52
			c3.68-1.08,5.1,0.68,7.06,3.12l0.6,0.74c1.33,1.64,5.84,3.3,8.95,4.15L83.3,45.31c0.12-0.16,0.28-0.3,0.45-0.4l25.5-14.72
			c1.47-2.41,10.15-16.37,15.77-19.7c5.32-3.15,7.37-5.72,9.47-9.64c0.23-0.42,0.64-0.71,1.12-0.78c4.4-0.6,12.48,2.98,16.49,6.46
			c2.3,2,4.5,4.42,6.62,6.75c1.67,1.84,3.24,3.57,4.66,4.86c2.53,2.3,9.27,5.61,11.65,6.74c3.87-3.13,9.94-7.75,12.28-7.66
			c2.78,0.05,5.47,0.86,8.98,2.71c2.22,1.17,2.78,1.74,4.08,3.2c0.79,0.89,1.99,2.25,4.41,4.54c1.75,1.65,3.91,3.27,6.79,5.08
			c1.45,0.91,2.88,1.76,4.27,2.58c2.99,1.77,5.57,3.29,7.21,4.86c0.08,0.07,0.15,0.16,0.21,0.25c5.32,7.95,11.02,12.98,15.24,13.45
			c0.75,0.08,1.41,0,1.96-0.24c3.9-1.7,14.46-7.94,14.57-8c0.62-0.37,1.42-0.24,1.9,0.31c4.21,4.84,10.89,12.38,12.03,13.33
			c0.37,0.31,0.83,0.46,1.37,0.63c1.17,0.38,2.94,0.96,3.21,3.64c0.15,1.53,2.67,6.14,4.54,9.17c0.54,0.22,1.54,0.62,2.78,1.07
			c2.4,0.88,5.87,2.04,8.8,2.57c0.64,0.12,1.13,0.64,1.22,1.28c0.22,1.67,1.3,3.17,2.8,5.24c0.73,1.01,1.56,2.15,2.39,3.48
			c1.04,1.65,2.25,2.8,3.66,4.13c1.88,1.77,4,3.78,6.44,7.53c0.04,0.06,0.12,0.18,0.18,0.29c4.09,6.25,8.21,11.98,8.26,12.04
			c0.33,0.46,0.38,1.06,0.12,1.56C314.45,112.45,313.93,112.76,313.37,112.76z M4.41,109.76h306.06c-1.61-2.28-4.15-5.96-6.69-9.85
			c-0.06-0.11-0.08-0.14-0.11-0.17c-2.28-3.5-4.27-5.38-6.02-7.04c-1.49-1.41-2.9-2.74-4.14-4.71c-0.78-1.24-1.54-2.29-2.28-3.31
			c-1.38-1.9-2.6-3.59-3.13-5.53c-2.88-0.62-6.04-1.68-8.29-2.51c-1.96-0.71-3.3-1.28-3.36-1.31c-0.28-0.12-0.52-0.32-0.68-0.58
			c-0.83-1.31-4.96-8.01-5.24-10.88c-0.07-0.73-0.15-0.76-1.15-1.08c-0.69-0.22-1.55-0.5-2.37-1.19
			c-1.46-1.22-8.92-9.71-11.55-12.72c-2.84,1.66-10.47,6.08-13.83,7.54c-1.04,0.45-2.21,0.6-3.48,0.47
			c-5.14-0.57-11.44-5.9-17.31-14.63c-1.4-1.3-3.79-2.71-6.54-4.34c-1.41-0.83-2.87-1.69-4.35-2.63c-3.05-1.92-5.35-3.65-7.25-5.44
			c-2.52-2.38-3.77-3.8-4.6-4.73c-1.11-1.26-1.38-1.56-3.23-2.53c-3.07-1.62-5.35-2.33-7.64-2.37c-1.23,0.14-6.72,4.03-11.05,7.58
			c-0.44,0.36-1.05,0.44-1.58,0.2c-0.4-0.18-9.84-4.53-13.25-7.64c-1.53-1.39-3.15-3.17-4.86-5.06c-2.06-2.27-4.19-4.62-6.36-6.5
			c-3.46-3-9.98-5.77-13.41-5.8c-2.2,3.93-4.63,6.78-10.18,10.07c-4.46,2.65-12.29,14.61-14.93,19c-0.13,0.22-0.32,0.4-0.54,0.53
			L85.52,47.35L69.66,68.63c-0.36,0.48-0.97,0.7-1.55,0.56c-0.91-0.22-8.94-2.22-11.53-5.41l-0.61-0.75
			c-1.91-2.38-2.17-2.62-3.87-2.12c-1.56,0.46-2.58,1.2-3.45,1.93c-0.21,0.18-0.43,0.37-0.63,0.55c-0.44,0.39-0.87,0.76-1.3,1.09
			c-1.06,0.79-1.49,1.95-2.03,3.42l-0.21,0.56c-0.71,1.88-5.3,6.62-7,8.29c-1.3,1.26-3.09,2.92-4.34,3.66
			c-0.81,0.48-1.87,1.21-3.16,2.18c-2.06,1.54-4.44,3.49-5.78,4.73c-0.6,0.56-1.5,1.19-2.64,1.98c-2.8,1.96-7.04,4.91-9.37,8.79
			c-1.85,3.06-4.44,6.88-6.28,9.54C5.35,108.42,4.84,109.14,4.41,109.76z"/>
	</g>
	<g>
		<path class="st0" d="M192.37,112.29l-2.19-2.05c0.1-0.1,9.78-10.47,12.65-14.01c1.92-2.37,2.8-4.54,3.65-6.64
			c0.38-0.93,0.73-1.81,1.16-2.67c0.99-1.98,4.25-4.67,8.09-7.74c1.09-0.87,2.32-1.85,2.56-2.14c0.23-0.31,0.83-1.8,1.3-3
			c1.12-2.84,2.67-6.73,4.63-9.28c0.16-0.21,0.38-0.38,0.63-0.48c3.44-1.38,6.79-4.12,9.75-6.54c2.38-1.95,4.27-3.49,5.9-4.1
			l1.06,2.81c-1.17,0.44-3.06,1.98-5.06,3.62c-2.87,2.35-6.41,5.25-10.13,6.84c-1.61,2.24-2.97,5.69-3.99,8.24
			c-0.85,2.16-1.29,3.22-1.79,3.82c-0.4,0.48-1.3,1.21-3,2.56c-2.43,1.94-6.51,5.19-7.28,6.74c-0.38,0.76-0.71,1.59-1.07,2.46
			c-0.89,2.2-1.89,4.68-4.1,7.4C202.23,101.74,192.78,111.86,192.37,112.29z"/>
	</g>
	<g>
		<path class="st0" d="M97.36,112.2l-2.33-1.88l23.77-29.45c0.21-0.3,6.55-9.11,13.64-13.81c4.73-3.13,5.32-4.7,6.22-7.08
			c0.35-0.92,0.75-1.97,1.4-3.23c2.06-3.95,3.75-5.41,5.55-6.95c0.37-0.31,0.74-0.64,1.13-0.99c0.71-0.65,1-1.4,1.36-2.36
			c0.55-1.44,1.23-3.22,3.55-4.66c3.06-1.89,12.69-6.47,14.75-7.44c0.95-1.38,4.54-6.42,7.95-8.93l1.78,2.42
			c-3.47,2.55-7.43,8.47-7.47,8.53c-0.15,0.23-0.36,0.41-0.61,0.53c-0.12,0.05-11.6,5.47-14.82,7.45c-1.46,0.9-1.84,1.9-2.33,3.17
			c-0.43,1.11-0.91,2.38-2.14,3.5c-0.41,0.38-0.81,0.72-1.2,1.05c-1.7,1.47-3.05,2.62-4.84,6.07c-0.57,1.09-0.92,2.01-1.25,2.9
			c-1.14,3.01-2.1,5.03-7.37,8.52c-6.64,4.39-12.85,13.03-12.91,13.12L97.36,112.2z"/>
	</g>
	<g>
		<path class="st0" d="M51.41,112.24l-2.27-1.96L74.58,80.8C79.27,76,91.7,62.71,93.64,58.11c2.49-5.89,9.69-18.3,10-18.82
			c0.09-0.17,2.79-5.17,5.83-9.46l2.45,1.73c-2.93,4.14-5.64,9.14-5.66,9.19c-0.1,0.17-7.44,12.81-9.85,18.52
			c-2.56,6.06-18.92,22.84-19.61,23.55L51.41,112.24z"/>
	</g>
	<g>
		<path class="st0" d="M27.71,112.4l-1.95-2.28c0.22-0.19,21.85-18.62,27.52-24.1c5.57-5.39,11.57-15.25,13.83-18.96l0.07-0.11
			l2.56,1.56l-0.07,0.11c-2.31,3.8-8.46,13.9-14.31,19.56C49.63,93.72,28.6,111.64,27.71,112.4z"/>
	</g>
</g>
</svg>
